<svg width="486" height="97" viewBox="0 0 486 97" fill="none" xmlns="http://www.w3.org/2000/svg">
<path d="M44.933 0.382651C51.2 0.133651 94.107 -0.497357 96.785 0.743643C98.136 1.36964 99.589 4.25764 100.27 5.60564C103.824 12.6396 106.667 20.2326 109.789 27.4826C116.736 43.7733 123.781 60.0216 130.924 76.2276C134.754 66.9006 139.025 57.7596 142.792 48.4056C139.08 38.9356 134.6 29.7537 130.772 20.3247C128.643 26.6077 125.514 32.7836 122.828 38.8576C120.96 33.9316 118.465 29.2786 116.73 24.2876C118.214 20.4606 124.874 2.71065 127.661 1.13465C130.272 -0.343351 176.715 -0.330352 181.113 0.970648C181.762 1.16265 182.286 1.27865 182.733 1.80765C186.767 6.57265 193.742 27.6737 197.765 35.0597C193.557 35.1403 189.349 35.1723 185.14 35.1556C181.742 27.4716 178.112 19.7266 175.206 11.8456L139.49 11.8787C141.513 15.4007 143.009 19.5417 144.608 23.2797C147.355 29.767 150.154 36.2317 153.006 42.6737L188.324 42.5906C195.198 42.5726 202.238 42.2507 209.092 42.7277L209.242 32.3137C213.742 38.0887 219.917 43.2747 225.141 48.4307C219.781 53.7237 214.213 58.9677 209.16 64.5497C209.222 61.0897 209.148 57.6246 209.116 54.1646L152.802 54.1016C151.767 57.4746 150.137 60.7397 148.733 63.9767C145.704 70.9577 142.47 77.9117 139.804 85.0367L175.041 84.9706C178.406 77.2473 181.718 69.502 184.979 61.7347C189.203 61.6587 193.426 61.697 197.648 61.8496C194.078 68.9196 191.236 76.5796 188.129 83.8746C186.656 87.3346 185.299 91.2647 183.116 94.3387C182.481 95.2327 181.757 95.7366 180.8 96.2446C173.112 97.2146 163.924 96.5186 156.042 96.5266C147.562 96.5357 136.164 97.2506 128.067 96.2276C127.103 95.3986 126.403 94.4397 125.811 93.3217C120.895 84.0417 117.163 73.7086 113.003 64.0527C106.757 49.5577 100.145 35.1586 94.271 20.5106C90.352 28.6206 85.227 40.0636 82.28 48.5266C83.627 52.3346 85.45 56.0807 87.051 59.7927C89.419 65.2837 91.685 70.8496 94.386 76.1856C96.59 70.0216 99.48 63.9937 101.97 57.9257C104.237 62.6537 106.349 67.45 108.306 72.3146C107.006 76.1906 99.866 94.2567 97.15 95.7347C94.582 97.1327 53.693 96.7566 47.744 96.4046C46.046 96.3046 44.41 96.1016 42.773 95.6126C39.709 92.2386 30.088 67.9627 27.39 61.7007C31.6227 61.6193 35.855 61.621 40.087 61.7057C42.543 69.6707 47.358 76.9356 49.684 84.9786C61.6173 85.036 73.5503 85.0103 85.483 84.9016C80.761 74.8407 76.361 64.4586 72.12 54.1836C53.384 53.9746 34.633 54.1157 15.895 54.1287L15.947 64.2167C10.585 58.9757 5.128 53.8027 0 48.3326C5.22 43.0956 10.362 37.5397 15.945 32.6957C15.857 36.0057 15.92 39.3317 15.917 42.6437C34.5843 42.467 53.2523 42.423 71.921 42.5117C76.941 32.6567 81.002 22.0696 85.298 11.8706L49.71 11.8586C47.581 19.1346 43.109 27.8807 40.051 35.0057C35.868 35.1607 31.676 35.0527 27.491 34.9986C30.072 28.6966 32.815 22.4516 35.495 16.1906C37.19 12.2316 38.735 8.03564 40.784 4.25464C41.89 2.21464 42.666 1.05865 44.933 0.382651Z" fill="#FF0000"/>
<path d="M267.971 41.8323H262.652C262.448 40.696 262.067 39.696 261.51 38.8323C260.954 37.9687 260.272 37.2358 259.465 36.6335C258.658 36.0312 257.755 35.5767 256.755 35.2698C255.766 34.963 254.715 34.8096 253.601 34.8096C251.59 34.8096 249.789 35.3153 248.198 36.3267C246.618 37.338 245.368 38.821 244.448 40.7755C243.539 42.7301 243.084 45.1164 243.084 47.9346C243.084 50.7755 243.539 53.1733 244.448 55.1278C245.368 57.0823 246.624 58.5596 248.215 59.5596C249.806 60.5596 251.596 61.0596 253.584 61.0596C254.687 61.0596 255.732 60.9119 256.721 60.6164C257.721 60.3096 258.624 59.8608 259.431 59.2698C260.238 58.6789 260.92 57.9573 261.476 57.1051C262.045 56.2414 262.437 55.2528 262.652 54.1392L267.971 54.1562C267.687 55.8721 267.135 57.4517 266.317 58.8948C265.51 60.3267 264.471 61.5653 263.198 62.6108C261.937 63.6448 260.493 64.446 258.868 65.0142C257.243 65.5823 255.471 65.8664 253.55 65.8664C250.527 65.8664 247.834 65.1505 245.471 63.7187C243.107 62.2755 241.243 60.213 239.88 57.5312C238.527 54.8494 237.851 51.6505 237.851 47.9346C237.851 44.2073 238.533 41.0085 239.897 38.338C241.26 35.6562 243.124 33.5994 245.488 32.1676C247.851 30.7244 250.539 30.0028 253.55 30.0028C255.402 30.0028 257.13 30.2698 258.732 30.8039C260.346 31.3267 261.795 32.0994 263.079 33.1221C264.363 34.1335 265.425 35.3721 266.266 36.838C267.107 38.2926 267.675 39.9573 267.971 41.8323ZM279.441 49.8437V65.3892H274.344V30.4801H279.373V43.4687H279.696C280.31 42.0596 281.248 40.9403 282.509 40.1107C283.77 39.2812 285.418 38.8664 287.452 38.8664C289.248 38.8664 290.816 39.2358 292.157 39.9744C293.509 40.713 294.554 41.8153 295.293 43.2812C296.043 44.7358 296.418 46.5539 296.418 48.7358V65.3892H291.321V49.3494C291.321 47.4289 290.827 45.9403 289.838 44.8835C288.85 43.8153 287.475 43.2812 285.713 43.2812C284.509 43.2812 283.429 43.5369 282.475 44.0483C281.532 44.5596 280.787 45.3096 280.242 46.2983C279.708 47.2755 279.441 48.4573 279.441 49.8437ZM311.318 65.9687C309.659 65.9687 308.159 65.6619 306.818 65.0483C305.478 64.4233 304.415 63.5198 303.631 62.338C302.858 61.1562 302.472 59.7073 302.472 57.9914C302.472 56.5142 302.756 55.2983 303.324 54.3437C303.892 53.3892 304.659 52.6335 305.625 52.0767C306.591 51.5198 307.671 51.0994 308.864 50.8153C310.057 50.5312 311.273 50.3153 312.512 50.1676C314.08 49.9858 315.353 49.838 316.33 49.7244C317.307 49.5994 318.017 49.4005 318.46 49.1278C318.904 48.8551 319.125 48.4119 319.125 47.7983V47.6789C319.125 46.1903 318.705 45.0369 317.864 44.2187C317.034 43.4005 315.796 42.9914 314.148 42.9914C312.432 42.9914 311.08 43.3721 310.091 44.1335C309.114 44.8835 308.438 45.7187 308.063 46.6392L303.273 45.5483C303.841 43.9573 304.671 42.6733 305.762 41.696C306.864 40.7073 308.131 39.9914 309.563 39.5482C310.995 39.0937 312.5 38.8664 314.08 38.8664C315.125 38.8664 316.233 38.9914 317.404 39.2414C318.585 39.4801 319.688 39.9233 320.71 40.571C321.745 41.2187 322.591 42.1448 323.25 43.3494C323.909 44.5426 324.239 46.0937 324.239 48.0028V65.3892H319.262V61.8096H319.057C318.728 62.4687 318.233 63.1164 317.574 63.7528C316.915 64.3892 316.068 64.9176 315.034 65.338C314 65.7585 312.762 65.9687 311.318 65.9687ZM312.426 61.8778C313.835 61.8778 315.04 61.5994 316.04 61.0426C317.051 60.4858 317.818 59.7585 318.341 58.8608C318.875 57.9517 319.142 56.9801 319.142 55.946V52.571C318.96 52.7528 318.608 52.9233 318.085 53.0823C317.574 53.2301 316.989 53.3608 316.33 53.4744C315.671 53.5767 315.029 53.6733 314.404 53.7642C313.779 53.8437 313.256 53.9119 312.835 53.9687C311.847 54.0937 310.943 54.3039 310.125 54.5994C309.318 54.8948 308.671 55.321 308.182 55.8778C307.705 56.4233 307.466 57.1505 307.466 58.0596C307.466 59.321 307.932 60.2755 308.864 60.9233C309.796 61.5596 310.983 61.8778 312.426 61.8778ZM331.507 65.3892V39.2073H336.604V65.3892H331.507ZM334.081 35.1676C333.195 35.1676 332.433 34.8721 331.797 34.2812C331.172 33.6789 330.86 32.963 330.86 32.1335C330.86 31.2926 331.172 30.5767 331.797 29.9857C332.433 29.3835 333.195 29.0823 334.081 29.0823C334.967 29.0823 335.723 29.3835 336.348 29.9857C336.985 30.5767 337.303 31.2926 337.303 32.1335C337.303 32.963 336.985 33.6789 336.348 34.2812C335.723 34.8721 334.967 35.1676 334.081 35.1676ZM349.037 49.8437V65.3892H343.94V39.2073H348.832V43.4687H349.156C349.759 42.0823 350.702 40.9687 351.986 40.1278C353.281 39.2869 354.912 38.8664 356.878 38.8664C358.662 38.8664 360.224 39.2414 361.565 39.9914C362.906 40.7301 363.946 41.8323 364.685 43.2983C365.423 44.7642 365.793 46.5767 365.793 48.7358V65.3892H360.696V49.3494C360.696 47.4517 360.202 45.9687 359.213 44.9005C358.224 43.821 356.867 43.2812 355.139 43.2812C353.957 43.2812 352.906 43.5369 351.986 44.0483C351.077 44.5596 350.355 45.3096 349.821 46.2983C349.298 47.2755 349.037 48.4573 349.037 49.8437ZM392.557 39.6505C392.375 38.0369 391.625 36.7869 390.307 35.9005C388.989 35.0028 387.329 34.5539 385.329 34.5539C383.898 34.5539 382.659 34.7812 381.614 35.2357C380.568 35.6789 379.756 36.2926 379.176 37.0767C378.608 37.8494 378.324 38.7301 378.324 39.7187C378.324 40.5483 378.517 41.2642 378.903 41.8664C379.301 42.4687 379.818 42.9744 380.454 43.3835C381.102 43.7812 381.795 44.1164 382.534 44.3892C383.273 44.6505 383.983 44.8664 384.665 45.0369L388.074 45.9233C389.187 46.196 390.329 46.5653 391.5 47.0312C392.67 47.4971 393.756 48.1108 394.756 48.8721C395.756 49.6335 396.562 50.5767 397.176 51.7017C397.801 52.8267 398.114 54.1733 398.114 55.7414C398.114 57.7187 397.602 59.4744 396.579 61.0085C395.568 62.5426 394.097 63.7528 392.165 64.6392C390.244 65.5255 387.92 65.9687 385.193 65.9687C382.579 65.9687 380.318 65.5539 378.409 64.7244C376.5 63.8948 375.006 62.7187 373.926 61.196C372.847 59.6619 372.25 57.8437 372.136 55.7414H377.42C377.523 57.0028 377.932 58.0539 378.648 58.8948C379.375 59.7244 380.301 60.3437 381.426 60.7528C382.562 61.1505 383.807 61.3494 385.159 61.3494C386.648 61.3494 387.972 61.1164 389.131 60.6505C390.301 60.1733 391.222 59.5142 391.892 58.6733C392.562 57.821 392.898 56.8267 392.898 55.6903C392.898 54.6562 392.602 53.8096 392.011 53.1505C391.432 52.4914 390.642 51.946 389.642 51.5142C388.653 51.0823 387.534 50.7017 386.284 50.3721L382.159 49.2471C379.364 48.4858 377.148 47.3664 375.511 45.8892C373.886 44.4119 373.074 42.4573 373.074 40.0255C373.074 38.0142 373.619 36.2585 374.71 34.7585C375.801 33.2585 377.278 32.0937 379.142 31.2642C381.006 30.4233 383.108 30.0028 385.449 30.0028C387.812 30.0028 389.898 30.4176 391.704 31.2471C393.523 32.0767 394.954 33.2187 396 34.6732C397.045 36.1164 397.591 37.7755 397.636 39.6505H392.557ZM407.7 75.2073C406.939 75.2073 406.246 75.1448 405.621 75.0198C404.996 74.9062 404.53 74.7812 404.223 74.6448L405.45 70.4687C406.382 70.7187 407.211 70.8267 407.939 70.7926C408.666 70.7585 409.308 70.4858 409.865 69.9744C410.433 69.463 410.933 68.6278 411.365 67.4687L411.996 65.7301L402.416 39.2073H407.871L414.501 59.5255H414.774L421.405 39.2073H426.876L416.086 68.8835C415.586 70.2471 414.95 71.4005 414.177 72.3437C413.405 73.2983 412.484 74.0142 411.416 74.4914C410.348 74.9687 409.109 75.2073 407.7 75.2073ZM437.243 49.8437V65.3892H432.146V39.2073H437.038V43.4687H437.362C437.964 42.0823 438.907 40.9687 440.191 40.1278C441.487 39.2869 443.118 38.8664 445.084 38.8664C446.868 38.8664 448.43 39.2414 449.771 39.9914C451.112 40.7301 452.152 41.8323 452.89 43.2983C453.629 44.7642 453.998 46.5767 453.998 48.7358V65.3892H448.902V49.3494C448.902 47.4517 448.407 45.9687 447.419 44.9005C446.43 43.821 445.072 43.2812 443.345 43.2812C442.163 43.2812 441.112 43.5369 440.191 44.0483C439.282 44.5596 438.561 45.3096 438.027 46.2983C437.504 47.2755 437.243 48.4573 437.243 49.8437ZM472.342 65.9176C469.808 65.9176 467.626 65.3437 465.796 64.196C463.978 63.0369 462.581 61.4403 461.603 59.4062C460.626 57.3721 460.137 55.0426 460.137 52.4176C460.137 49.7585 460.637 47.4119 461.637 45.3778C462.637 43.3323 464.046 41.7358 465.865 40.588C467.683 39.4403 469.825 38.8664 472.291 38.8664C474.279 38.8664 476.052 39.2358 477.609 39.9744C479.166 40.7017 480.421 41.7244 481.376 43.0426C482.342 44.3608 482.916 45.9005 483.098 47.6619H478.137C477.865 46.4346 477.24 45.3778 476.262 44.4914C475.296 43.6051 474.001 43.1619 472.376 43.1619C470.956 43.1619 469.711 43.5369 468.643 44.2869C467.586 45.0255 466.762 46.0823 466.171 47.4573C465.581 48.821 465.285 50.4346 465.285 52.2983C465.285 54.2073 465.575 55.8551 466.154 57.2414C466.734 58.6278 467.552 59.7017 468.609 60.463C469.677 61.2244 470.933 61.6051 472.376 61.6051C473.342 61.6051 474.217 61.4289 475.001 61.0767C475.796 60.713 476.461 60.196 476.995 59.5255C477.541 58.8551 477.921 58.0483 478.137 57.1051H483.098C482.916 58.7983 482.365 60.3096 481.444 61.6392C480.524 62.9687 479.291 64.0142 477.745 64.7755C476.211 65.5369 474.41 65.9176 472.342 65.9176Z" fill="white"/>
</svg>
