<svg width="250" height="165" viewBox="0 0 250 165" fill="none" xmlns="http://www.w3.org/2000/svg">
<path d="M57.3627 0.382651C63.6297 0.133651 106.537 -0.497357 109.215 0.743643C110.566 1.36964 112.019 4.25764 112.7 5.60564C116.254 12.6396 119.097 20.2326 122.219 27.4826C129.165 43.7733 136.21 60.0216 143.354 76.2276C147.184 66.9006 151.455 57.7596 155.222 48.4056C151.51 38.9356 147.03 29.7537 143.202 20.3247C141.073 26.6077 137.944 32.7836 135.258 38.8576C133.39 33.9316 130.895 29.2786 129.16 24.2876C130.644 20.4606 137.304 2.71065 140.091 1.13465C142.702 -0.343351 189.145 -0.330352 193.543 0.970648C194.192 1.16265 194.716 1.27865 195.163 1.80765C199.197 6.57265 206.172 27.6737 210.195 35.0597C205.987 35.1403 201.778 35.1723 197.57 35.1556C194.172 27.4716 190.542 19.7266 187.636 11.8456L151.92 11.8787C153.943 15.4007 155.439 19.5417 157.038 23.2797C159.784 29.767 162.584 36.2317 165.436 42.6737L200.754 42.5906C207.628 42.5726 214.668 42.2507 221.522 42.7277L221.672 32.3137C226.172 38.0887 232.347 43.2747 237.571 48.4307C232.211 53.7237 226.643 58.9677 221.59 64.5497C221.652 61.0897 221.578 57.6247 221.546 54.1646L165.232 54.1016C164.197 57.4746 162.567 60.7397 161.163 63.9767C158.134 70.9577 154.9 77.9117 152.234 85.0367L187.471 84.9706C190.835 77.2473 194.148 69.502 197.409 61.7347C201.633 61.6587 205.856 61.697 210.078 61.8496C206.508 68.9196 203.666 76.5796 200.559 83.8746C199.086 87.3346 197.729 91.2647 195.546 94.3387C194.911 95.2327 194.187 95.7366 193.23 96.2446C185.542 97.2146 176.354 96.5186 168.472 96.5266C159.992 96.5356 148.594 97.2506 140.497 96.2276C139.533 95.3986 138.833 94.4397 138.241 93.3217C133.325 84.0417 129.593 73.7087 125.433 64.0527C119.187 49.5577 112.575 35.1586 106.701 20.5106C102.782 28.6206 97.6567 40.0636 94.7097 48.5266C96.0567 52.3346 97.8797 56.0807 99.4807 59.7927C101.849 65.2837 104.115 70.8496 106.816 76.1856C109.02 70.0216 111.91 63.9937 114.4 57.9257C116.667 62.6537 118.779 67.45 120.736 72.3146C119.436 76.1906 112.296 94.2567 109.58 95.7347C107.012 97.1327 66.1227 96.7566 60.1737 96.4046C58.4757 96.3046 56.8397 96.1016 55.2027 95.6126C52.1387 92.2386 42.5177 67.9627 39.8197 61.7007C44.0524 61.6193 48.2847 61.621 52.5167 61.7057C54.9727 69.6707 59.7877 76.9356 62.1137 84.9786C74.047 85.036 85.98 85.0103 97.9127 84.9016C93.1907 74.8406 88.7907 64.4586 84.5497 54.1836C65.8137 53.9746 47.0627 54.1157 28.3247 54.1287L28.3767 64.2167C23.0147 58.9757 17.5577 53.8026 12.4297 48.3326C17.6497 43.0956 22.7917 37.5397 28.3747 32.6957C28.2867 36.0057 28.3497 39.3317 28.3467 42.6437C47.014 42.467 65.682 42.423 84.3507 42.5117C89.3707 32.6567 93.4317 22.0696 97.7277 11.8706L62.1397 11.8586C60.0107 19.1346 55.5387 27.8807 52.4807 35.0057C48.2977 35.1607 44.1057 35.0526 39.9207 34.9986C42.5017 28.6966 45.2447 22.4516 47.9247 16.1906C49.6197 12.2316 51.1647 8.03564 53.2137 4.25464C54.3197 2.21464 55.0957 1.05865 57.3627 0.382651Z" fill="#FF0000"/>
<path d="M32.8295 129.221H27.5114C27.3068 128.085 26.9261 127.085 26.3693 126.221C25.8125 125.357 25.1307 124.624 24.3239 124.022C23.517 123.42 22.6136 122.965 21.6136 122.659C20.625 122.352 19.5739 122.198 18.4602 122.198C16.4489 122.198 14.6477 122.704 13.0568 123.715C11.4773 124.727 10.2273 126.21 9.30682 128.164C8.39773 130.119 7.94318 132.505 7.94318 135.323C7.94318 138.164 8.39773 140.562 9.30682 142.516C10.2273 144.471 11.483 145.948 13.0739 146.948C14.6648 147.948 16.4545 148.448 18.4432 148.448C19.5455 148.448 20.5909 148.301 21.5795 148.005C22.5795 147.698 23.483 147.249 24.2898 146.659C25.0966 146.068 25.7784 145.346 26.3352 144.494C26.9034 143.63 27.2955 142.641 27.5114 141.528L32.8295 141.545C32.5455 143.261 31.9943 144.84 31.1761 146.284C30.3693 147.715 29.3295 148.954 28.0568 149.999C26.7955 151.034 25.3523 151.835 23.7273 152.403C22.1023 152.971 20.3295 153.255 18.4091 153.255C15.3864 153.255 12.6932 152.539 10.3295 151.107C7.96591 149.664 6.10227 147.602 4.73864 144.92C3.38636 142.238 2.71023 139.039 2.71023 135.323C2.71023 131.596 3.39205 128.397 4.75568 125.727C6.11932 123.045 7.98295 120.988 10.3466 119.556C12.7102 118.113 15.3977 117.391 18.4091 117.391C20.2614 117.391 21.9886 117.659 23.5909 118.193C25.2045 118.715 26.6534 119.488 27.9375 120.511C29.2216 121.522 30.2841 122.761 31.125 124.227C31.9659 125.681 32.5341 127.346 32.8295 129.221ZM44.2996 137.232V152.778H39.203V117.869H44.2314V130.857H44.5553C45.1689 129.448 46.1064 128.329 47.3678 127.499C48.6291 126.67 50.2769 126.255 52.311 126.255C54.1064 126.255 55.6746 126.624 57.0155 127.363C58.3678 128.102 59.4132 129.204 60.1519 130.67C60.9019 132.124 61.2769 133.943 61.2769 136.124V152.778H56.1803V136.738C56.1803 134.818 55.686 133.329 54.6973 132.272C53.7087 131.204 52.3337 130.67 50.5723 130.67C49.3678 130.67 48.2882 130.926 47.3337 131.437C46.3905 131.948 45.6462 132.698 45.1007 133.687C44.5666 134.664 44.2996 135.846 44.2996 137.232ZM76.1773 153.357C74.5182 153.357 73.0182 153.051 71.6773 152.437C70.3364 151.812 69.2739 150.909 68.4898 149.727C67.7171 148.545 67.3307 147.096 67.3307 145.38C67.3307 143.903 67.6148 142.687 68.183 141.732C68.7512 140.778 69.5182 140.022 70.4841 139.465C71.4501 138.909 72.5296 138.488 73.7228 138.204C74.916 137.92 76.1319 137.704 77.3705 137.556C78.9387 137.374 80.2114 137.227 81.1887 137.113C82.166 136.988 82.8762 136.789 83.3194 136.516C83.7626 136.244 83.9841 135.801 83.9841 135.187V135.068C83.9841 133.579 83.5637 132.426 82.7228 131.607C81.8932 130.789 80.6546 130.38 79.0069 130.38C77.291 130.38 75.9387 130.761 74.9501 131.522C73.9728 132.272 73.2966 133.107 72.9216 134.028L68.1319 132.937C68.7001 131.346 69.5296 130.062 70.6205 129.085C71.7228 128.096 72.9898 127.38 74.4216 126.937C75.8535 126.482 77.3591 126.255 78.9387 126.255C79.9841 126.255 81.0921 126.38 82.2626 126.63C83.4444 126.869 84.5466 127.312 85.5694 127.96C86.6035 128.607 87.4501 129.534 88.1091 130.738C88.7682 131.931 89.0978 133.482 89.0978 135.391V152.778H84.1205V149.198H83.916C83.5864 149.857 83.0921 150.505 82.433 151.141C81.7739 151.778 80.9273 152.306 79.8932 152.727C78.8591 153.147 77.6205 153.357 76.1773 153.357ZM77.2853 149.266C78.6944 149.266 79.8989 148.988 80.8989 148.431C81.9103 147.874 82.6773 147.147 83.2001 146.249C83.7341 145.34 84.0012 144.369 84.0012 143.335V139.96C83.8194 140.141 83.4671 140.312 82.9444 140.471C82.433 140.619 81.8478 140.749 81.1887 140.863C80.5296 140.965 79.8876 141.062 79.2626 141.153C78.6376 141.232 78.1148 141.301 77.6944 141.357C76.7057 141.482 75.8023 141.693 74.9841 141.988C74.1773 142.284 73.5296 142.71 73.041 143.266C72.5637 143.812 72.3251 144.539 72.3251 145.448C72.3251 146.71 72.791 147.664 73.7228 148.312C74.6546 148.948 75.8421 149.266 77.2853 149.266ZM96.3661 152.778V126.596H101.463V152.778H96.3661ZM98.94 122.556C98.0536 122.556 97.2923 122.261 96.6559 121.67C96.0309 121.068 95.7184 120.352 95.7184 119.522C95.7184 118.681 96.0309 117.965 96.6559 117.374C97.2923 116.772 98.0536 116.471 98.94 116.471C99.8264 116.471 100.582 116.772 101.207 117.374C101.843 117.965 102.162 118.681 102.162 119.522C102.162 120.352 101.843 121.068 101.207 121.67C100.582 122.261 99.8264 122.556 98.94 122.556ZM113.896 137.232V152.778H108.799V126.596H113.691V130.857H114.015C114.617 129.471 115.561 128.357 116.845 127.516C118.14 126.676 119.771 126.255 121.737 126.255C123.521 126.255 125.083 126.63 126.424 127.38C127.765 128.119 128.805 129.221 129.544 130.687C130.282 132.153 130.652 133.965 130.652 136.124V152.778H125.555V136.738C125.555 134.84 125.061 133.357 124.072 132.289C123.083 131.21 121.725 130.67 119.998 130.67C118.816 130.67 117.765 130.926 116.845 131.437C115.936 131.948 115.214 132.698 114.68 133.687C114.157 134.664 113.896 135.846 113.896 137.232ZM157.416 127.039C157.234 125.426 156.484 124.176 155.166 123.289C153.847 122.391 152.188 121.943 150.188 121.943C148.757 121.943 147.518 122.17 146.472 122.624C145.427 123.068 144.614 123.681 144.035 124.465C143.467 125.238 143.183 126.119 143.183 127.107C143.183 127.937 143.376 128.653 143.762 129.255C144.16 129.857 144.677 130.363 145.313 130.772C145.961 131.17 146.654 131.505 147.393 131.778C148.132 132.039 148.842 132.255 149.524 132.426L152.933 133.312C154.046 133.585 155.188 133.954 156.359 134.42C157.529 134.886 158.614 135.499 159.614 136.261C160.614 137.022 161.421 137.965 162.035 139.09C162.66 140.215 162.972 141.562 162.972 143.13C162.972 145.107 162.461 146.863 161.438 148.397C160.427 149.931 158.955 151.141 157.024 152.028C155.103 152.914 152.779 153.357 150.052 153.357C147.438 153.357 145.177 152.943 143.268 152.113C141.359 151.284 139.864 150.107 138.785 148.585C137.705 147.051 137.109 145.232 136.995 143.13H142.279C142.382 144.391 142.791 145.443 143.507 146.284C144.234 147.113 145.16 147.732 146.285 148.141C147.421 148.539 148.666 148.738 150.018 148.738C151.507 148.738 152.83 148.505 153.989 148.039C155.16 147.562 156.08 146.903 156.751 146.062C157.421 145.21 157.757 144.215 157.757 143.079C157.757 142.045 157.461 141.198 156.87 140.539C156.291 139.88 155.501 139.335 154.501 138.903C153.512 138.471 152.393 138.09 151.143 137.761L147.018 136.636C144.222 135.874 142.007 134.755 140.37 133.278C138.745 131.801 137.933 129.846 137.933 127.414C137.933 125.403 138.478 123.647 139.569 122.147C140.66 120.647 142.137 119.482 144.001 118.653C145.864 117.812 147.967 117.391 150.308 117.391C152.671 117.391 154.757 117.806 156.563 118.636C158.382 119.465 159.813 120.607 160.859 122.062C161.904 123.505 162.45 125.164 162.495 127.039H157.416ZM172.559 162.596C171.798 162.596 171.104 162.534 170.479 162.409C169.854 162.295 169.389 162.17 169.082 162.034L170.309 157.857C171.241 158.107 172.07 158.215 172.798 158.181C173.525 158.147 174.167 157.874 174.724 157.363C175.292 156.852 175.792 156.016 176.224 154.857L176.854 153.119L167.275 126.596H172.729L179.36 146.914H179.633L186.264 126.596H191.735L180.945 156.272C180.445 157.636 179.809 158.789 179.036 159.732C178.264 160.687 177.343 161.403 176.275 161.88C175.207 162.357 173.968 162.596 172.559 162.596ZM202.101 137.232V152.778H197.005V126.596H201.897V130.857H202.221C202.823 129.471 203.766 128.357 205.05 127.516C206.346 126.676 207.976 126.255 209.942 126.255C211.726 126.255 213.289 126.63 214.63 127.38C215.971 128.119 217.011 129.221 217.749 130.687C218.488 132.153 218.857 133.965 218.857 136.124V152.778H213.761V136.738C213.761 134.84 213.266 133.357 212.278 132.289C211.289 131.21 209.931 130.67 208.204 130.67C207.022 130.67 205.971 130.926 205.05 131.437C204.141 131.948 203.42 132.698 202.886 133.687C202.363 134.664 202.101 135.846 202.101 137.232ZM237.201 153.306C234.667 153.306 232.485 152.732 230.655 151.585C228.837 150.426 227.439 148.829 226.462 146.795C225.485 144.761 224.996 142.431 224.996 139.806C224.996 137.147 225.496 134.801 226.496 132.766C227.496 130.721 228.905 129.124 230.724 127.977C232.542 126.829 234.684 126.255 237.15 126.255C239.138 126.255 240.911 126.624 242.468 127.363C244.025 128.09 245.28 129.113 246.235 130.431C247.201 131.749 247.775 133.289 247.956 135.051H242.996C242.724 133.823 242.099 132.766 241.121 131.88C240.155 130.994 238.86 130.551 237.235 130.551C235.814 130.551 234.57 130.926 233.502 131.676C232.445 132.414 231.621 133.471 231.03 134.846C230.439 136.21 230.144 137.823 230.144 139.687C230.144 141.596 230.434 143.244 231.013 144.63C231.593 146.016 232.411 147.09 233.468 147.852C234.536 148.613 235.792 148.994 237.235 148.994C238.201 148.994 239.076 148.818 239.86 148.465C240.655 148.102 241.32 147.585 241.854 146.914C242.4 146.244 242.78 145.437 242.996 144.494H247.956C247.775 146.187 247.224 147.698 246.303 149.028C245.383 150.357 244.15 151.403 242.604 152.164C241.07 152.926 239.269 153.306 237.201 153.306Z" fill="white"/>
</svg>
