<svg width="250" height="97" viewBox="0 0 250 97" fill="none" xmlns="http://www.w3.org/2000/svg">
<path d="M57.3627 0.382651C63.6297 0.133651 106.537 -0.497357 109.215 0.743643C110.566 1.36964 112.019 4.25764 112.7 5.60564C116.254 12.6396 119.097 20.2326 122.219 27.4826C129.165 43.7733 136.21 60.0216 143.354 76.2276C147.184 66.9006 151.455 57.7596 155.222 48.4056C151.51 38.9356 147.03 29.7537 143.202 20.3247C141.073 26.6077 137.944 32.7836 135.258 38.8576C133.39 33.9316 130.895 29.2786 129.16 24.2876C130.644 20.4606 137.304 2.71065 140.091 1.13465C142.702 -0.343351 189.145 -0.330352 193.543 0.970648C194.192 1.16265 194.716 1.27865 195.163 1.80765C199.197 6.57265 206.172 27.6737 210.195 35.0597C205.987 35.1403 201.778 35.1723 197.57 35.1556C194.172 27.4716 190.542 19.7266 187.636 11.8456L151.92 11.8787C153.943 15.4007 155.439 19.5417 157.038 23.2797C159.784 29.767 162.584 36.2317 165.436 42.6737L200.754 42.5906C207.628 42.5726 214.668 42.2507 221.522 42.7277L221.672 32.3137C226.172 38.0887 232.347 43.2747 237.571 48.4307C232.211 53.7237 226.643 58.9677 221.59 64.5497C221.652 61.0897 221.578 57.6247 221.546 54.1646L165.232 54.1016C164.197 57.4746 162.567 60.7397 161.163 63.9767C158.134 70.9577 154.9 77.9117 152.234 85.0367L187.471 84.9706C190.835 77.2473 194.148 69.502 197.409 61.7347C201.633 61.6587 205.856 61.697 210.078 61.8496C206.508 68.9196 203.666 76.5796 200.559 83.8746C199.086 87.3346 197.729 91.2647 195.546 94.3387C194.911 95.2327 194.187 95.7366 193.23 96.2446C185.542 97.2146 176.354 96.5186 168.472 96.5266C159.992 96.5356 148.594 97.2506 140.497 96.2276C139.533 95.3986 138.833 94.4397 138.241 93.3217C133.325 84.0417 129.593 73.7087 125.433 64.0527C119.187 49.5577 112.575 35.1586 106.701 20.5106C102.782 28.6206 97.6567 40.0636 94.7097 48.5266C96.0567 52.3346 97.8797 56.0807 99.4807 59.7927C101.849 65.2837 104.115 70.8496 106.816 76.1856C109.02 70.0216 111.91 63.9937 114.4 57.9257C116.667 62.6537 118.779 67.45 120.736 72.3146C119.436 76.1906 112.296 94.2567 109.58 95.7347C107.012 97.1327 66.1227 96.7566 60.1737 96.4046C58.4757 96.3046 56.8397 96.1016 55.2027 95.6126C52.1387 92.2386 42.5177 67.9627 39.8197 61.7007C44.0524 61.6193 48.2847 61.621 52.5167 61.7057C54.9727 69.6707 59.7877 76.9356 62.1137 84.9786C74.047 85.036 85.98 85.0103 97.9127 84.9016C93.1907 74.8406 88.7907 64.4586 84.5497 54.1836C65.8137 53.9746 47.0627 54.1157 28.3247 54.1287L28.3767 64.2167C23.0147 58.9757 17.5577 53.8026 12.4297 48.3326C17.6497 43.0956 22.7917 37.5397 28.3747 32.6957C28.2867 36.0057 28.3497 39.3317 28.3467 42.6437C47.014 42.467 65.682 42.423 84.3507 42.5117C89.3707 32.6567 93.4317 22.0696 97.7277 11.8706L62.1397 11.8586C60.0107 19.1346 55.5387 27.8807 52.4807 35.0057C48.2977 35.1607 44.1057 35.0526 39.9207 34.9986C42.5017 28.6966 45.2447 22.4516 47.9247 16.1906C49.6197 12.2316 51.1647 8.03564 53.2137 4.25464C54.3197 2.21464 55.0957 1.05865 57.3627 0.382651Z" fill="#FF0000"/>
</svg>
